<?xml version="1.0" encoding="UTF-8"?>
<svg width="22px" height="28px" viewBox="0 0 22 28" version="1.1" xmlns="http://www.w3.org/2000/svg" xmlns:xlink="http://www.w3.org/1999/xlink">
    <defs>
        <filter x="-50%" y="-50%" width="200%" height="200%" filterUnits="objectBoundingBox" id="filter-1">
            <feOffset dx="0" dy="2" in="SourceAlpha" result="shadowOffsetOuter1"></feOffset>
            <feGaussianBlur stdDeviation="2" in="shadowOffsetOuter1" result="shadowBlurOuter1"></feGaussianBlur>
            <feColorMatrix values="0 0 0 0 0.798814838   0 0 0 0 0.798814838   0 0 0 0 0.798814838  0 0 0 0.5 0" type="matrix" in="shadowBlurOuter1" result="shadowMatrixOuter1"></feColorMatrix>
            <feMerge>
                <feMergeNode in="shadowMatrixOuter1"></feMergeNode>
                <feMergeNode in="SourceGraphic"></feMergeNode>
            </feMerge>
        </filter>
    </defs>
    <g id="Page-1" stroke="none" stroke-width="1" fill="none" fill-rule="evenodd">
        <g id="home" transform="translate(-256.000000, -980.000000)" fill="#D00000">
            <g id="projects" transform="translate(240.000000, 712.000000)">
                <g id="dev">
                    <g id="project-1" transform="translate(0.000000, 84.000000)">
                        <g id="project-hover-1" filter="url(#filter-1)" transform="translate(0.000000, 31.000000)">
                            <path d="M23.7500004,172.5 C23.7500004,172.152778 23.6284727,171.857639 23.3854171,171.614584 C23.1423615,171.371528 22.8472221,171.25 22.5000003,171.25 C22.1527777,171.25 21.8576391,171.371528 21.6145835,171.614584 C21.3715279,171.857639 21.2500001,172.152778 21.2500001,172.5 C21.2500001,172.847222 21.3715279,173.142362 21.6145835,173.385417 C21.8576391,173.628473 22.1527777,173.750001 22.5000003,173.750001 C22.8472221,173.750001 23.1423615,173.628473 23.3854171,173.385417 C23.6284727,173.142362 23.7500004,172.847222 23.7500004,172.5 L23.7500004,172.5 Z M23.7500004,157.5 C23.7500004,157.152778 23.6284727,156.857639 23.3854171,156.614583 C23.1423615,156.371528 22.8472221,156.25 22.5000003,156.25 C22.1527777,156.25 21.8576391,156.371528 21.6145835,156.614583 C21.3715279,156.857639 21.2500001,157.152778 21.2500001,157.5 C21.2500001,157.847222 21.3715279,158.142361 21.6145835,158.385416 C21.8576391,158.628472 22.1527777,158.75 22.5000003,158.75 C22.8472221,158.75 23.1423615,158.628472 23.3854171,158.385416 C23.6284727,158.142361 23.7500004,157.847222 23.7500004,157.5 L23.7500004,157.5 Z M32.0833334,159.166667 C32.0833334,158.819444 31.9618057,158.524306 31.7187501,158.28125 C31.4756945,158.038195 31.1805559,157.916667 30.8333333,157.916667 C30.4861115,157.916667 30.1909728,158.038195 29.9479173,158.28125 C29.7048617,158.524306 29.5833339,158.819444 29.5833339,159.166667 C29.5833339,159.513889 29.7048617,159.809027 29.9479173,160.052083 C30.1909728,160.295138 30.4861115,160.416666 30.8333333,160.416666 C31.1805559,160.416666 31.4756945,160.295138 31.7187501,160.052083 C31.9618057,159.809027 32.0833334,159.513889 32.0833334,159.166667 L32.0833334,159.166667 Z M33.3333336,159.166667 C33.3333336,159.618056 33.2204866,160.036892 32.9947918,160.423177 C32.7690978,160.809462 32.4652783,161.111111 32.0833334,161.328125 C32.0659727,163.819444 31.0850696,165.616319 29.1406251,166.71875 C28.5503478,167.048611 27.669271,167.400174 26.4973963,167.773438 C25.3862847,168.12066 24.650608,168.42882 24.2903647,168.697917 C23.9301213,168.967014 23.7500004,169.401042 23.7500004,170 L23.7500004,170.338542 C24.1319446,170.555556 24.435764,170.857205 24.6614588,171.24349 C24.8871528,171.629774 24.9999998,172.048612 24.9999998,172.5 C24.9999998,173.194445 24.7569442,173.784722 24.2708331,174.270833 C23.784722,174.756944 23.1944446,175 22.5000003,175 C21.8055559,175 21.2152778,174.756944 20.7291667,174.270833 C20.2430556,173.784722 20,173.194445 20,172.5 C20,172.048612 20.112847,171.629774 20.3385418,171.24349 C20.5642358,170.857205 20.8680552,170.555556 21.2500001,170.338542 L21.2500001,159.661458 C20.8680552,159.444444 20.5642358,159.142795 20.3385418,158.75651 C20.112847,158.370226 20,157.951389 20,157.5 C20,156.805555 20.2430556,156.215278 20.7291667,155.729167 C21.2152778,155.243056 21.8055559,155 22.5000003,155 C23.1944446,155 23.784722,155.243056 24.2708331,155.729167 C24.7569442,156.215278 24.9999998,156.805555 24.9999998,157.5 C24.9999998,157.951389 24.8871528,158.370226 24.6614588,158.75651 C24.435764,159.142795 24.1319446,159.444444 23.7500004,159.661458 L23.7500004,166.132813 C24.21875,165.907118 24.8871528,165.659722 25.7552088,165.390625 C26.2326392,165.243056 26.6124133,165.115017 26.8945312,165.00651 C27.1766499,164.898003 27.4826393,164.763455 27.8125003,164.602865 C28.1423613,164.442275 28.3984377,164.270834 28.5807293,164.088542 C28.763021,163.90625 28.9388027,163.684896 29.1080728,163.424479 C29.2773437,163.164063 29.3988715,162.862413 29.4726562,162.519531 C29.5464416,162.176649 29.5833339,161.779514 29.5833339,161.328125 C29.201389,161.111111 28.8975696,160.809462 28.6718756,160.423177 C28.4461808,160.036892 28.3333338,159.618056 28.3333338,159.166667 C28.3333338,158.472222 28.5763893,157.881944 29.0625005,157.395833 C29.5486116,156.909722 30.1388889,156.666667 30.8333333,156.666667 C31.5277784,156.666667 32.1180558,156.909722 32.6041669,157.395833 C33.090278,157.881944 33.3333336,158.472222 33.3333336,159.166667 L33.3333336,159.166667 Z" id="Shape"></path>
                        </g>
                    </g>
                </g>
            </g>
        </g>
    </g>
</svg>